<?xml version="1.0" standalone="no"?>
<!DOCTYPE svg PUBLIC "-//W3C//DTD SVG 20010904//EN"
 "http://www.w3.org/TR/2001/REC-SVG-20010904/DTD/svg10.dtd">
<svg version="1.0" xmlns="http://www.w3.org/2000/svg"
 width="1075.000000pt" height="1075.000000pt" viewBox="0 0 1075.000000 1075.000000"
 preserveAspectRatio="xMidYMid meet">
<metadata>
Created by potrace 1.14, written by Peter Selinger 2001-2017
</metadata>
<g transform="translate(0.000000,1075.000000) scale(0.100000,-0.100000)"
fill="#000000" stroke="none">
<path d="M6321 10684 c-26 -34 -26 -41 2 -84 40 -60 87 -175 87 -211 0 -64 -8
-67 -107 -42 -165 42 -355 55 -490 33 -131 -21 -302 -80 -443 -150 -113 -57
-195 -115 -334 -237 -47 -42 -50 -43 -116 -43 -79 0 -143 20 -184 58 -31 29
-87 140 -105 209 -10 35 -16 43 -42 48 -41 9 -74 -15 -116 -86 -54 -92 -89
-311 -79 -504 5 -111 9 -126 41 -191 44 -90 68 -120 115 -144 41 -21 50 -36
50 -80 0 -16 5 -41 10 -56 8 -20 7 -39 -6 -77 -12 -37 -15 -71 -11 -133 4 -79
3 -85 -28 -142 -41 -73 -54 -142 -32 -175 21 -33 211 -87 305 -87 20 0 44 -5
52 -10 25 -16 -155 -1 -248 21 -90 20 -121 23 -123 12 -1 -5 -3 -33 -4 -63 -4
-60 7 -90 32 -90 13 0 14 -3 5 -12 -7 -7 -12 -22 -12 -34 0 -39 41 -158 68
-199 15 -22 29 -51 32 -64 7 -33 28 -38 39 -9 7 18 27 30 82 50 41 14 92 33
114 43 22 9 35 12 30 6 -6 -6 -46 -26 -90 -45 -84 -37 -103 -60 -62 -75 35
-13 41 -28 16 -36 -11 -4 -51 -33 -87 -64 -89 -77 -337 -328 -366 -372 -63
-92 -90 -138 -113 -188 -41 -90 -83 -204 -83 -226 0 -24 90 -203 145 -290 21
-33 72 -102 114 -154 106 -131 106 -131 144 -197 32 -57 91 -198 116 -276 11
-36 30 -222 31 -300 0 -72 -15 -37 -18 40 -3 106 -17 168 -65 297 -81 217
-139 317 -301 520 -67 84 -104 142 -152 241 -35 73 -72 158 -83 190 -10 33
-35 106 -55 163 -30 83 -38 127 -46 225 -20 242 -73 407 -162 496 -54 54 -106
77 -193 84 -38 4 -107 14 -153 22 -96 18 -106 16 -241 -52 -90 -44 -128 -80
-155 -147 -19 -45 -6 -72 48 -96 25 -11 69 -41 98 -67 103 -93 95 -89 113 -70
28 28 37 17 14 -15 -22 -31 -23 -31 -39 -13 -8 10 -42 42 -75 69 -120 102
-142 111 -188 75 -14 -11 -28 -16 -31 -11 -3 5 3 11 14 14 31 8 34 33 11 87
-13 30 -24 85 -29 137 -4 52 -12 88 -19 90 -21 7 -46 -59 -51 -134 -3 -54 -9
-77 -23 -89 -18 -16 -19 -16 -19 10 0 14 -17 59 -37 99 -31 61 -37 84 -41 155
-2 45 -8 82 -12 82 -17 0 -50 -101 -56 -172 -5 -65 -3 -82 11 -105 l18 -27
-39 31 c-47 37 -80 48 -98 34 -15 -13 -44 15 -72 69 -19 37 -24 123 -10 154
14 28 -23 17 -46 -15 -24 -32 -34 -134 -20 -194 l9 -40 -59 0 c-36 0 -62 -5
-67 -13 -11 -18 -51 68 -51 111 0 20 9 51 19 69 19 31 19 48 0 48 -17 0 -88
-79 -95 -105 -13 -51 0 -162 23 -193 15 -20 18 -33 11 -40 -12 -12 6 -105 33
-169 10 -23 47 -71 83 -106 35 -35 80 -88 99 -118 43 -67 62 -85 114 -103 41
-15 118 -11 129 5 3 5 23 0 44 -11 51 -26 62 -25 116 6 45 27 45 27 60 6 18
-26 60 -35 119 -27 34 6 45 12 45 26 0 10 -4 21 -10 24 -5 3 -10 10 -10 15 0
5 22 -13 50 -40 55 -56 93 -65 123 -30 9 11 29 20 43 20 35 0 139 57 159 86 9
14 28 56 44 94 36 90 58 75 30 -20 -23 -78 -164 -190 -243 -194 -19 -1 -36
-11 -48 -27 -20 -26 -20 -27 7 -135 58 -241 77 -552 61 -1024 -8 -225 -7 -265
9 -340 16 -81 73 -227 102 -261 7 -8 13 -19 13 -23 0 -4 12 -24 26 -44 27 -37
27 -37 -15 6 -23 23 -44 42 -47 42 -3 0 -58 -49 -121 -109 -63 -61 -134 -119
-159 -131 l-44 -22 -46 41 c-174 153 -412 261 -734 332 -95 22 -128 24 -360
23 -313 -1 -382 -12 -590 -96 -131 -53 -199 -87 -255 -128 -30 -22 -59 -40
-64 -40 -5 0 -16 -8 -23 -18 -7 -10 -44 -47 -83 -82 -127 -117 -218 -241 -305
-415 -33 -66 -60 -128 -60 -138 0 -10 -7 -31 -15 -47 -8 -16 -26 -88 -40 -162
-14 -73 -33 -163 -41 -200 -7 -37 -14 -116 -14 -176 0 -274 63 -499 218 -781
51 -93 72 -119 192 -237 129 -127 229 -207 334 -268 190 -110 456 -227 618
-271 66 -18 67 -18 73 -59 8 -49 61 -189 104 -275 68 -137 217 -287 330 -331
51 -20 72 -35 104 -75 43 -54 66 -72 172 -133 108 -62 178 -124 202 -179 12
-26 29 -93 38 -148 30 -185 45 -239 97 -350 45 -96 52 -122 61 -207 l10 -98
-39 -56 c-38 -56 -39 -58 -36 -138 1 -58 -3 -94 -15 -126 -13 -32 -18 -71 -17
-135 1 -76 5 -100 30 -152 15 -35 33 -63 39 -63 17 0 45 -34 45 -54 0 -26 30
-77 40 -71 6 4 10 28 10 56 0 41 3 49 18 49 34 0 85 32 96 61 13 35 24 37 36
4 12 -31 46 -65 65 -65 11 0 15 12 15 52 0 83 8 51 15 -62 7 -103 17 -150 32
-150 13 0 31 51 38 105 6 50 7 51 39 47 27 -3 37 2 59 28 15 17 27 36 27 41 0
5 5 9 10 9 6 0 10 -7 10 -16 0 -21 54 -74 76 -74 10 0 29 10 42 23 l24 22 -2
-85 c-3 -117 -3 -119 20 -92 10 12 24 48 30 80 23 107 28 119 60 126 17 3 33
6 38 8 4 1 27 5 52 9 25 4 53 10 62 14 30 12 48 -41 41 -127 -5 -70 -4 -77 16
-87 19 -10 22 -9 32 16 19 48 22 211 6 280 -11 47 -13 71 -5 97 14 44 3 113
-27 173 -14 26 -25 56 -25 67 0 31 -23 99 -43 129 -10 15 -36 36 -57 47 -44
22 -86 89 -119 187 -26 78 -27 131 -2 191 24 56 47 177 57 286 l7 79 62 62
c59 59 82 76 216 166 121 81 373 184 512 208 119 21 483 30 747 18 151 -6 173
-5 240 14 125 34 140 30 245 -71 76 -73 148 -115 223 -130 26 -5 88 -19 137
-31 67 -15 146 -23 310 -29 246 -9 284 -16 399 -73 45 -22 99 -46 120 -53 21
-8 87 -49 145 -93 58 -43 120 -85 136 -93 17 -8 56 -31 89 -51 75 -46 146 -61
268 -55 84 4 100 2 113 -12 9 -10 44 -30 78 -46 88 -40 216 -46 301 -14 32 12
67 31 78 42 28 28 20 60 -18 70 -33 8 -66 39 -71 66 -9 44 -4 134 8 148 23 28
44 34 73 18 38 -19 63 -18 75 4 6 9 11 11 11 5 0 -18 90 -108 126 -126 41 -21
102 -90 125 -141 23 -53 29 -58 46 -45 21 18 15 107 -12 174 -14 33 -25 61
-25 62 0 0 10 -1 23 -5 35 -8 104 -59 133 -97 14 -19 29 -35 33 -35 4 0 7 24
8 52 1 54 -23 124 -56 162 -9 10 -11 17 -6 14 71 -32 88 -44 111 -78 29 -44
54 -52 54 -17 0 63 -110 217 -155 217 -8 0 -15 4 -15 10 0 22 -77 93 -143 132
-38 22 -101 51 -141 64 -72 25 -86 27 -512 54 -111 7 -166 15 -204 30 -28 11
-55 18 -59 15 -10 -5 -215 52 -252 70 -14 8 -56 25 -95 38 -38 14 -141 60
-229 102 -101 49 -180 81 -215 87 -30 5 -66 11 -80 14 -14 3 -81 7 -149 10
-180 6 -169 18 14 16 121 -2 268 -27 324 -55 51 -26 110 -15 201 37 90 52 164
90 245 126 77 36 336 299 402 410 54 91 114 219 134 288 12 43 23 52 32 29 10
-26 194 -127 292 -161 138 -47 245 -59 461 -53 194 5 220 11 389 87 118 53
135 62 280 156 231 151 398 324 486 507 35 72 39 89 39 157 0 67 -4 82 -29
121 -42 68 -85 82 -182 63 -100 -21 -144 -46 -237 -134 -138 -131 -287 -248
-388 -304 -16 -9 -45 -26 -64 -37 -19 -12 -84 -37 -145 -57 -97 -32 -122 -36
-210 -36 -129 1 -239 29 -360 93 -49 27 -107 52 -127 55 -43 8 -43 10 -23 86
20 76 20 252 -1 321 -37 122 -89 195 -179 251 -27 17 -72 46 -100 64 -27 18
-71 38 -97 45 -47 11 -118 5 -118 -10 0 -4 -19 -16 -42 -27 -22 -10 -57 -30
-77 -44 -52 -37 -61 -42 -61 -32 0 5 11 14 24 20 53 24 297 256 361 342 13 18
35 40 48 49 58 39 176 193 234 306 17 33 47 89 66 125 36 67 88 216 106 305
26 132 24 280 -8 540 -17 138 -31 287 -30 330 1 69 4 53 24 -120 13 -110 30
-231 38 -270 19 -89 31 -228 28 -330 -2 -82 -32 -229 -57 -277 -8 -16 -12 -28
-8 -28 3 0 -1 -11 -10 -25 -9 -13 -16 -26 -16 -28 0 -3 17 -7 38 -11 119 -20
522 113 629 207 34 30 128 143 173 207 38 55 117 148 147 174 23 20 28 32 28
77 2 82 32 265 57 336 19 57 20 77 14 181 -3 64 -8 131 -11 147 -2 17 4 -1 15
-40 22 -85 25 -182 6 -255 -31 -119 -41 -211 -41 -360 0 -137 3 -161 22 -210
24 -59 62 -100 94 -100 23 0 24 18 4 47 -10 14 -12 24 -5 28 5 3 10 17 10 30
0 30 36 50 103 58 43 4 49 2 57 -18 5 -12 15 -25 23 -28 16 -6 9 -76 -11 -114
-25 -46 -17 -56 43 -51 l55 5 0 -76 c-1 -63 -5 -83 -25 -116 -43 -70 -29 -86
30 -33 66 57 123 162 134 243 l6 50 28 -48 c23 -39 29 -64 34 -136 5 -84 5
-88 -19 -112 -14 -14 -31 -35 -37 -47 -31 -58 78 2 124 68 35 51 56 134 59
239 2 47 7 85 12 83 4 -2 11 4 14 14 5 13 11 9 26 -22 11 -21 31 -59 45 -84
21 -39 24 -56 21 -123 -3 -96 11 -99 46 -11 35 86 42 148 26 214 -22 87 -33
108 -60 113 -29 5 -84 -27 -85 -50 -3 -35 -17 43 -18 98 0 31 -6 80 -11 109
-6 29 -8 55 -6 57 11 12 27 -45 33 -117 7 -89 21 -114 51 -86 24 21 41 20 58
-1 13 -17 15 -16 35 7 31 36 22 141 -19 230 -36 80 -80 251 -98 386 -13 100
-40 195 -75 265 -52 103 -201 263 -277 296 -48 20 -217 29 -291 14 -98 -19
-210 -107 -316 -246 -77 -101 -252 -277 -305 -306 -33 -18 -108 -38 -144 -39
-88 -1 -317 179 -382 301 -33 61 -34 67 -34 174 0 89 -6 134 -30 233 -40 160
-86 264 -217 484 -42 70 -142 189 -218 260 -33 30 -86 81 -119 112 -32 31 -65
56 -72 56 -8 0 -16 12 -19 28 -14 62 -35 93 -78 112 -49 23 -94 24 -194 6
l-72 -13 14 27 c8 15 29 40 47 55 57 48 145 172 177 250 36 87 51 154 51 236
l0 58 -37 3 c-21 2 -58 0 -83 -4 -267 -44 -301 -48 -325 -38 -15 7 -11 9 21 9
78 2 356 46 384 61 9 5 18 2 26 -8 8 -10 17 -13 30 -7 10 4 27 7 37 6 21 -3
34 26 19 41 -8 8 -15 8 -26 -1 -10 -9 -16 -9 -21 -1 -4 6 -13 9 -20 6 -16 -6
-27 36 -27 106 0 26 -4 48 -8 48 -5 0 -12 25 -16 56 -3 30 -12 61 -19 67 -9 9
-9 16 -1 30 9 14 7 21 -5 30 -9 7 -33 45 -53 84 -20 39 -43 76 -51 83 -18 15
-20 51 -3 68 9 9 9 15 1 23 -16 16 -35 1 -28 -22 10 -31 -5 -22 -74 44 -103
98 -111 110 -132 200 -24 99 -66 169 -127 210 -53 36 -69 67 -82 159 -20 137
-108 277 -246 389 -64 52 -102 76 -230 144 -64 34 -116 33 -143 -1z m359 -384
c31 -74 52 -150 43 -150 -15 0 -42 49 -43 76 0 18 -12 63 -26 100 -33 90 -14
70 26 -26z m66 -298 c55 -56 77 -107 70 -159 -5 -35 -2 -46 16 -63 13 -11 35
-20 54 -20 18 0 36 -4 39 -10 3 -5 12 -10 20 -10 19 0 80 -41 94 -63 9 -14 3
-12 -27 7 -55 35 -105 46 -205 46 -139 0 -214 -44 -261 -152 -78 -183 -106
-218 -170 -218 -44 0 -146 42 -146 60 0 4 -3 17 -7 27 -5 14 0 12 23 -8 76
-68 111 -74 162 -28 33 29 92 142 92 174 0 17 14 48 34 73 33 43 76 82 90 82
9 0 16 4 16 9 0 8 29 18 78 27 26 5 52 37 58 71 11 57 -11 107 -74 169 -48 47
-52 54 -25 40 18 -9 48 -33 69 -54z m-2169 -294 c17 -35 43 -78 58 -96 32 -38
97 -82 121 -82 25 0 10 -25 -17 -28 -34 -4 -106 61 -142 126 -25 45 -60 142
-52 142 2 0 16 -28 32 -62z m506 -17 c-7 -51 19 -138 54 -180 35 -41 86 -52
158 -35 28 7 88 15 135 18 73 6 97 3 167 -18 104 -31 115 -38 189 -105 34 -31
83 -67 110 -80 44 -22 52 -23 103 -13 79 16 105 48 97 116 -12 111 -16 160
-10 146 3 -8 12 -29 20 -47 8 -17 14 -39 14 -48 0 -9 7 -29 16 -45 36 -60 -32
-160 -108 -160 -52 0 -180 49 -218 84 -52 47 -118 89 -178 115 -99 41 -280 21
-405 -47 -54 -29 -147 -124 -177 -180 -10 -20 -19 -31 -20 -24 0 22 46 105 89
160 45 57 52 87 21 97 -26 8 -35 27 -55 111 -17 74 -22 145 -11 163 12 19 14
12 9 -28z m1901 -171 c24 0 20 -20 -20 -107 -36 -81 -87 -143 -139 -170 -39
-21 -130 -42 -180 -43 -57 0 -128 29 -120 49 4 9 9 30 12 46 9 53 44 113 102
171 95 96 157 114 262 77 37 -13 74 -23 83 -23z m344 -117 c-41 -149 -215
-301 -353 -309 l-50 -3 47 9 c126 23 250 119 313 242 19 38 35 76 35 84 0 8 4
14 9 14 6 0 5 -16 -1 -37z m-1697 -185 c42 -18 83 -38 90 -44 25 -18 64 -34
104 -42 l39 -8 -94 -32 c-100 -33 -114 -36 -251 -51 -66 -8 -100 -7 -146 4
-82 19 -169 53 -184 71 -16 19 4 40 76 79 133 74 237 80 366 23z m1806 13
c-56 -67 -168 -144 -260 -179 -93 -35 -91 -25 3 14 87 35 184 102 233 160 16
19 33 34 39 34 5 0 -1 -13 -15 -29z m-1053 -100 c31 -34 3 -24 -30 10 -21 23
-23 29 -9 21 11 -5 29 -20 39 -31z m-218 -59 c-18 -16 -18 -16 -6 6 6 13 14
21 18 18 3 -4 -2 -14 -12 -24z m1319 8 c-15 -24 -230 -109 -242 -96 -2 2 34
16 80 31 46 14 101 37 123 50 44 28 48 29 39 15z m-1332 -83 c3 -22 2 -35 -4
-32 -5 4 -9 22 -9 42 0 45 5 40 13 -10z m424 -26 c14 -49 7 -75 -11 -40 -19
37 -40 45 -69 23 -32 -23 -55 -92 -63 -184 -7 -77 5 -93 72 -104 49 -7 97 8
139 42 16 13 56 37 89 53 55 27 58 27 38 6 -37 -39 -54 -97 -58 -192 -2 -49
-4 -94 -4 -100 0 -5 -7 4 -14 20 -17 39 -70 95 -89 95 -18 0 -29 -27 -21 -52
10 -33 -20 -64 -68 -71 -47 -7 -226 -64 -245 -79 -13 -10 -18 -4 -27 34 -7 32
-53 88 -71 88 -9 0 -16 -19 -20 -55 -8 -59 -42 -136 -62 -143 -7 -2 -43 28
-80 66 -94 97 -202 162 -267 162 -18 0 -36 3 -39 6 -8 8 77 49 124 60 52 11
148 5 181 -12 88 -46 212 -59 264 -30 67 38 86 53 104 81 41 62 12 145 -57
164 -21 6 -45 11 -54 11 -9 0 -24 12 -34 26 -15 23 -22 25 -52 21 -50 -9 -76
-35 -69 -70 4 -20 2 -27 -7 -25 -6 3 -13 21 -15 41 -3 29 3 43 30 73 l34 36
56 -11 c90 -19 186 13 256 87 17 18 31 22 59 20 35 -3 38 -6 50 -47z m301 42
c-10 -2 -28 -2 -40 0 -13 2 -5 4 17 4 22 1 32 -1 23 -4z m85 0 c-7 -2 -21 -2
-30 0 -10 3 -4 5 12 5 17 0 24 -2 18 -5z m80 -70 c-7 -2 -21 -2 -30 0 -10 3
-4 5 12 5 17 0 24 -2 18 -5z m-1170 -83 c9 -10 9 -11 -1 -5 -8 4 -46 11 -85
15 l-72 9 73 -3 c43 -2 78 -9 85 -16z m42 -10 c3 -5 1 -10 -4 -10 -6 0 -11 5
-11 10 0 6 2 10 4 10 3 0 8 -4 11 -10z m50 -20 c3 -5 2 -10 -4 -10 -5 0 -13 5
-16 10 -3 6 -2 10 4 10 5 0 13 -4 16 -10z m-470 -10 c-7 -11 -79 -50 -92 -50
-10 0 79 58 90 59 5 1 5 -4 2 -9z m414 -6 c2 -2 -34 -3 -80 -3 -64 1 -74 3
-44 8 37 6 115 3 124 -5z m-86 -41 c-7 -2 -21 -2 -30 0 -10 3 -4 5 12 5 17 0
24 -2 18 -5z m70 0 c-7 -2 -21 -2 -30 0 -10 3 -4 5 12 5 17 0 24 -2 18 -5z
m-523 -28 c-13 -14 -29 -25 -35 -25 -6 0 -22 -12 -36 -26 -47 -51 -172 -104
-239 -103 l-45 1 60 13 c85 18 118 34 220 103 50 34 92 62 94 62 3 0 -6 -11
-19 -25z m200 20 c0 -2 -34 -20 -75 -39 -41 -19 -89 -45 -106 -57 -31 -22 -31
-22 -18 -1 8 12 18 24 24 26 5 3 46 21 90 40 87 39 85 38 85 31z m125 -23
c-70 -28 -167 -79 -217 -113 -14 -11 -29 -19 -32 -19 -4 0 -17 -9 -29 -21 -33
-31 -196 -152 -242 -179 -22 -14 -52 -36 -68 -49 -24 -21 -121 -83 -107 -69 9
10 135 103 194 143 32 22 68 51 80 65 70 82 398 267 476 269 8 0 -16 -12 -55
-27z m272 12 c-3 -3 -12 -4 -19 -1 -8 3 -5 6 6 6 11 1 17 -2 13 -5z m-157 -43
c0 -5 -15 -12 -32 -16 -102 -21 -290 -141 -433 -277 -33 -32 -83 -74 -111 -95
-70 -53 -142 -126 -157 -159 -7 -16 -29 -55 -50 -87 -69 -104 -82 -166 -82
-372 1 -134 5 -198 18 -252 30 -127 65 -227 102 -287 39 -64 42 -74 20 -56 -8
7 -35 55 -60 107 -45 93 -78 208 -90 307 -3 27 -8 52 -11 57 -12 20 -5 287 10
344 8 33 17 73 20 88 8 49 117 206 169 246 116 88 226 178 282 231 100 96 268
197 365 220 19 4 36 8 38 9 1 1 2 -3 2 -8z m-490 -85 c0 -2 -12 -11 -27 -20
l-28 -17 24 20 c23 21 31 25 31 17z m-342 -43 c-10 -2 -28 -2 -40 0 -13 2 -5
4 17 4 22 1 32 -1 23 -4z m258 -17 c-32 -26 -174 -91 -221 -101 -17 -3 -3 5
30 18 33 13 94 42 135 64 88 48 95 50 56 19z m1424 -105 c6 -24 9 -49 6 -56
-2 -7 -31 -16 -63 -20 -32 -3 -76 -9 -98 -11 -54 -7 -130 -32 -188 -62 -33
-17 -71 -26 -118 -30 -69 -5 -84 3 -55 27 12 10 33 66 51 136 1 6 10 -16 19
-47 10 -32 20 -58 22 -58 3 0 15 6 27 14 46 30 241 85 299 86 43 0 58 19 58
72 0 31 1 31 14 12 8 -11 19 -39 26 -63z m-1683 -7 c-3 -3 -12 -4 -19 -1 -8 3
-5 6 6 6 11 1 17 -2 13 -5z m-161 -16 c-14 -10 -182 -8 -221 2 -18 5 22 7 101
6 73 0 127 -4 120 -8z m97 5 c-13 -2 -35 -2 -50 0 -16 2 -5 4 22 4 28 0 40 -2
28 -4z m2582 -223 c18 -11 35 -30 39 -43 8 -31 6 -192 -3 -252 -12 -73 -59
-243 -82 -294 -10 -24 -26 -67 -33 -95 -8 -28 -18 -61 -22 -73 -5 -19 -2 -23
14 -23 18 0 61 54 100 125 9 16 11 12 17 -29 11 -71 0 -213 -21 -276 -14 -40
-28 -61 -53 -77 -42 -28 -51 -28 -79 -3 -12 11 -33 20 -48 20 -18 0 -45 18
-92 63 -37 35 -78 71 -92 80 -14 10 -45 33 -70 52 -25 19 -62 45 -84 57 -58
34 -69 41 -104 66 l-32 24 20 25 c37 48 45 134 16 181 -3 6 -2 14 4 17 6 4 8
15 5 25 -6 20 4 25 135 66 79 25 90 33 158 100 68 68 85 94 62 94 -11 0 -68
-36 -158 -99 -24 -16 -67 -37 -95 -47 -29 -9 -74 -30 -101 -46 -47 -28 -51
-29 -63 -12 -11 15 -7 23 29 63 24 25 58 59 78 74 19 16 66 58 103 93 84 79
137 110 235 140 99 29 174 31 217 4z m-5101 -109 c11 -18 -28 -90 -52 -94 -31
-6 -38 9 -7 17 28 7 49 40 42 67 -5 19 7 26 17 10z m3036 -31 c139 -15 136
-13 98 -67 -18 -25 -39 -48 -46 -50 -7 -3 -36 5 -65 17 -28 13 -63 26 -77 31
-14 4 -50 17 -80 28 -30 12 -66 21 -79 21 -45 0 -12 13 51 20 92 11 94 11 198
0z m-2855 -10 c8 -13 -5 -13 -25 0 -13 8 -13 10 2 10 9 0 20 -4 23 -10z m345
-20 c6 -11 9 -20 7 -20 -2 0 -12 9 -22 20 -10 11 -13 20 -7 20 6 0 16 -9 22
-20z m2955 -32 c39 -11 84 -22 100 -25 17 -3 36 -10 43 -16 7 -5 36 -15 65
-22 l52 -12 -74 -6 c-41 -4 -78 -3 -85 2 -14 11 -221 34 -244 27 -9 -3 -23
-20 -31 -38 -14 -30 -13 -32 21 -64 51 -46 106 -53 194 -24 72 24 72 24 448 4
122 -7 156 -19 156 -54 0 -9 4 -20 9 -25 5 -6 16 -30 24 -54 l15 -45 -97 -31
c-103 -33 -183 -75 -216 -111 -48 -54 -68 -79 -76 -102 -13 -34 -12 -40 14
-57 22 -14 27 -13 73 12 76 43 112 96 58 85 -75 -14 74 78 189 117 l85 29 7
-26 c3 -14 2 -28 -3 -31 -6 -3 -13 -27 -17 -53 -14 -95 -82 -187 -284 -385
-102 -101 -202 -190 -221 -200 -34 -16 -35 -16 -97 18 -55 29 -67 40 -87 84
-13 28 -26 69 -30 90 -4 22 -11 51 -15 65 -5 14 -15 45 -22 70 -8 25 -22 61
-31 80 -10 19 -18 42 -18 52 0 39 -98 229 -190 368 -20 30 -30 62 -36 114 -8
67 19 123 73 156 69 42 123 44 248 8z m-3145 -104 c0 -38 58 -170 97 -221 19
-25 33 -47 31 -49 -3 -2 -26 26 -52 62 -56 76 -123 262 -86 239 6 -3 10 -17
10 -31z m3210 22 c0 -2 -11 -6 -25 -8 -14 -3 -25 -1 -25 3 0 5 11 9 25 9 14 0
25 -2 25 -4z m258 -3 c-10 -2 -28 -2 -40 0 -13 2 -5 4 17 4 22 1 32 -1 23 -4z
m-3681 -25 c-3 -8 -6 -5 -6 6 -1 11 2 17 5 13 3 -3 4 -12 1 -19z m463 -91 c0
-4 20 -51 45 -105 25 -53 42 -92 36 -87 -13 14 -121 228 -121 240 0 11 39 -36
40 -48z m3778 15 c9 -9 31 -44 47 -77 17 -33 36 -65 43 -73 6 -7 12 -18 12
-23 0 -16 -46 -84 -81 -118 -44 -44 -67 -51 -101 -32 -23 13 -27 22 -27 56 1
55 -48 215 -73 243 -39 40 36 17 84 -27 34 -30 41 -25 28 19 -5 18 -7 37 -4
41 9 15 53 10 72 -9z m-4163 -94 c18 -40 47 -92 64 -116 19 -26 25 -38 14 -31
-29 18 -68 80 -96 152 -14 37 -23 67 -20 67 2 0 19 -33 38 -72z m3945 -668 c0
-5 -5 -10 -11 -10 -5 0 -7 5 -4 10 3 6 8 10 11 10 2 0 4 -4 4 -10z m847 -32
c-3 -8 -6 -5 -6 6 -1 11 2 17 5 13 3 -3 4 -12 1 -19z m-804 -51 c-2 -4 -11 -3
-19 4 -12 10 -12 14 -2 20 13 9 30 -10 21 -24z m787 -44 c-11 -17 -11 -17 -6
0 3 10 6 24 7 30 0 9 2 9 5 0 3 -7 0 -20 -6 -30z m-750 -17 c0 -11 -19 -15
-25 -6 -3 5 1 10 9 10 9 0 16 -2 16 -4z m43 -71 c8 -19 -13 -31 -24 -14 -13
20 -11 29 5 29 8 0 16 -7 19 -15z m694 -7 c-3 -8 -6 -5 -6 6 -1 11 2 17 5 13
3 -3 4 -12 1 -19z m-652 -69 c10 -15 -1 -23 -20 -15 -9 3 -13 10 -10 16 8 13
22 13 30 -1z m639 -14 c-4 -8 -8 -15 -10 -15 -2 0 -4 7 -4 15 0 8 4 15 10 15
5 0 7 -7 4 -15z m-604 -69 c0 -8 -4 -18 -10 -21 -5 -3 -10 -4 -10 -1 0 2 -3
11 -6 20 -4 11 -1 16 10 16 9 0 16 -6 16 -14z m590 -16 c0 -5 -5 -10 -11 -10
-5 0 -7 5 -4 10 3 6 8 10 11 10 2 0 4 -4 4 -10z m947 -87 c-3 -10 -5 -2 -5 17
0 19 2 27 5 18 2 -10 2 -26 0 -35z m-957 13 c0 -3 -4 -8 -10 -11 -5 -3 -10 -1
-10 4 0 6 5 11 10 11 6 0 10 -2 10 -4z m-510 -71 c0 -8 -4 -15 -9 -15 -5 0
-11 7 -15 15 -3 9 0 15 9 15 8 0 15 -7 15 -15z m490 -9 c0 -8 -4 -18 -10 -21
-5 -3 -10 3 -10 14 0 12 5 21 10 21 6 0 10 -6 10 -14z m2375 -105 c-7 -78 2
-142 46 -314 16 -65 30 -134 31 -155 1 -36 -28 -142 -39 -142 -3 0 -3 49 0
108 5 87 2 126 -15 198 -33 148 -44 256 -34 328 11 70 18 55 11 -23z m-2827
38 c-2 -6 -8 -10 -13 -10 -5 0 -11 4 -13 10 -2 6 4 11 13 11 9 0 15 -5 13 -11z
m423 -42 c-8 -8 -11 -7 -11 4 0 9 3 19 7 23 4 4 9 2 11 -4 3 -7 -1 -17 -7 -23z
m2696 -39 c-3 -7 -5 -2 -5 12 0 14 2 19 5 13 2 -7 2 -19 0 -25z m-2716 -65
c-10 -17 -10 -16 -11 3 0 23 13 41 18 25 2 -6 -1 -18 -7 -28z m-350 14 c-1
-12 -15 -9 -19 4 -3 6 1 10 8 8 6 -3 11 -8 11 -12z m-1756 -94 c-18 -254 -83
-448 -198 -585 -29 -34 -70 -86 -93 -115 -110 -141 -163 -190 -247 -231 -90
-43 -166 -67 -242 -76 -62 -7 -36 5 75 36 85 23 183 72 245 123 64 53 265 278
307 345 62 97 97 204 117 360 18 131 34 230 38 230 2 0 1 -39 -2 -87z m4839
71 c3 -8 2 -12 -4 -9 -6 3 -10 10 -10 16 0 14 7 11 14 -7z m-137 -66 c-2 -13
-4 -3 -4 22 0 25 2 35 4 23 2 -13 2 -33 0 -45z m163 17 c5 -14 12 -38 15 -53
6 -26 5 -26 -8 4 -20 42 -29 74 -22 74 3 0 10 -11 15 -25z m-3077 -15 c3 -11
1 -18 -4 -14 -5 3 -9 12 -9 20 0 20 7 17 13 -6z m298 -21 c-9 -22 -10 -22 -10
-3 -1 11 2 24 6 27 12 12 14 0 4 -24z m2632 -59 c4 -30 3 -38 -3 -25 -8 19
-14 83 -6 74 2 -2 6 -24 9 -49z m-2893 -4 c0 -8 -4 -17 -9 -20 -10 -7 -23 19
-14 28 11 11 23 6 23 -8z m241 -49 c-8 -8 -11 -7 -11 4 0 9 3 19 7 23 4 4 9 2
11 -4 3 -7 -1 -17 -7 -23z m-211 -37 c0 -5 -4 -10 -10 -10 -5 0 -10 5 -10 10
0 6 5 10 10 10 6 0 10 -4 10 -10z m2898 -65 c0 -29 0 -29 -8 -5 -4 14 -8 39
-8 55 0 29 0 29 8 5 4 -14 8 -38 8 -55z m-2695 25 c-3 -11 -7 -20 -9 -20 -2 0
-4 9 -4 20 0 11 4 20 9 20 5 0 7 -9 4 -20z m-173 -35 c0 -8 -4 -15 -10 -15 -5
0 -10 7 -10 15 0 8 5 15 10 15 6 0 10 -7 10 -15z m-2367 -107 c-6 -100 -13
-99 -13 1 0 45 4 80 8 77 5 -3 7 -38 5 -78z m5244 50 c-3 -7 -5 -2 -5 12 0 14
2 19 5 13 2 -7 2 -19 0 -25z m-11 -80 c-15 -25 -18 -15 -10 28 7 36 8 37 14
14 4 -14 2 -33 -4 -42z m-2446 4 c0 -11 -9 -22 -20 -25 -27 -7 -26 -49 1 -94
12 -19 19 -37 15 -40 -3 -3 1 -11 9 -17 9 -6 22 -36 30 -66 8 -30 19 -56 25
-58 19 -7 10 -22 -12 -22 -13 0 -54 -12 -93 -25 -38 -14 -70 -25 -71 -25 0 0
3 30 7 67 4 37 5 72 3 78 -1 5 -5 33 -8 60 -10 98 -18 130 -31 140 -19 12 49
40 106 43 33 2 39 0 39 -16z m-450 -59 c0 -9 -7 -21 -16 -28 -23 -16 -21 -105
5 -175 11 -30 29 -80 40 -110 11 -30 19 -56 18 -56 -1 -1 -22 -5 -47 -8 -25
-3 -60 -10 -79 -15 -19 -6 -37 -9 -41 -6 -9 5 0 196 10 214 9 17 1 91 -13 109
-5 6 -17 12 -27 12 -20 0 -35 29 -23 41 4 4 31 13 58 19 28 7 61 15 75 19 30
9 40 5 40 -16z m2824 -2 c2 -3 -8 -6 -24 -6 -16 0 -26 5 -23 11 4 12 40 8 47
-5z m181 -1 c3 -5 2 -10 -4 -10 -5 0 -13 5 -16 10 -3 6 -2 10 4 10 5 0 13 -4
16 -10z m-2808 -208 c2 -82 0 -122 -7 -122 -13 0 -49 77 -50 106 0 11 -4 24
-9 30 -12 12 -26 98 -14 91 4 -3 19 1 33 9 14 7 29 12 34 11 5 -2 11 -58 13
-125z m89 101 c-3 -20 -22 -28 -31 -14 -8 14 3 31 20 31 7 0 12 -8 11 -17z
m-206 -42 c0 -5 2 -16 5 -24 4 -10 -3 -14 -28 -15 -27 -1 -36 3 -40 18 -3 10
-2 21 1 24 9 10 62 7 62 -3z m-3494 -134 c23 -22 55 -47 70 -56 30 -18 62 -51
49 -51 -6 0 -83 59 -111 86 -7 6 -25 21 -40 35 -16 13 -36 33 -44 44 -14 20
-14 20 10 0 14 -11 43 -37 66 -58z m3709 53 c3 -5 -3 -10 -15 -10 -12 0 -18 5
-15 10 3 6 10 10 15 10 5 0 12 -4 15 -10z m-180 -30 c3 -5 1 -10 -6 -10 -7 0
-20 -7 -29 -15 -16 -14 -18 -14 -24 0 -4 10 2 19 17 25 29 12 35 12 42 0z
m466 -83 l6 -37 -62 6 c-70 7 -123 -6 -171 -42 l-32 -23 -6 25 c-12 46 0 59
77 83 39 13 77 25 82 26 6 2 30 3 55 2 44 -2 45 -3 51 -40z m-5546 -61 c157
-22 280 -53 353 -90 72 -37 182 -100 222 -128 l24 -18 -50 -52 c-93 -96 -224
-258 -250 -310 -76 -150 -129 -337 -164 -580 -11 -79 -30 -177 -41 -218 -22
-81 -104 -257 -153 -330 -17 -25 -39 -64 -50 -87 -17 -38 -23 -43 -65 -50 -96
-16 -221 -6 -346 26 -107 28 -130 38 -218 97 -87 57 -104 74 -148 142 -78 121
-124 226 -170 387 -40 143 -41 155 -36 247 12 187 69 364 166 506 96 141 308
318 466 387 33 15 79 36 103 47 80 40 189 47 357 24z m5088 -23 c19 -71 19
-72 -13 -63 -50 14 -177 -18 -222 -58 -16 -13 -18 -11 -24 24 -3 22 -6 44 -6
49 -1 6 23 22 53 37 44 22 68 27 131 27 65 1 77 -2 81 -16z m426 8 c14 -4 26
-11 27 -16 5 -18 -79 -68 -122 -73 -43 -4 -114 13 -114 28 0 5 19 22 43 39 34
24 52 30 92 30 28 -1 61 -4 74 -8z m-4619 -15 c0 -2 -28 -20 -62 -40 -35 -20
-74 -44 -88 -53 l-25 -17 25 27 c14 14 52 40 85 56 64 33 65 33 65 27z m4158
-125 c-33 -41 -105 -61 -165 -45 -30 8 -29 18 4 40 34 22 74 32 136 33 l49 1
-24 -29z m-2978 -20 c42 -8 42 -9 10 -9 -19 0 -55 3 -80 7 -42 8 -42 9 -10 9
19 0 55 -3 80 -7z m85 -19 c-3 -3 -11 0 -18 7 -9 10 -8 11 6 5 10 -3 15 -9 12
-12z m78 11 c-7 -2 -21 -2 -30 0 -10 3 -4 5 12 5 17 0 24 -2 18 -5z m-318
-708 c149 -136 254 -243 307 -316 60 -82 86 -124 42 -69 -15 19 -102 109 -194
200 -261 259 -338 351 -155 185z m3461 -123 c-8 -9 -19 -13 -22 -9 -10 9 16
38 28 31 6 -4 4 -13 -6 -22z m-63 -58 c3 -4 -1 -13 -9 -22 -13 -13 -17 -13
-24 -2 -5 8 -6 18 -4 22 6 9 28 11 37 2z m-72 -71 c12 -15 12 -16 -3 -10 -10
3 -20 2 -23 -4 -4 -5 -11 -6 -17 -3 -7 5 -4 12 7 21 23 16 20 16 36 -4z m-90
-66 c-13 -13 -26 -3 -16 12 3 6 11 8 17 5 6 -4 6 -10 -1 -17z m-51 -46 c0 -11
-39 -21 -45 -11 -2 4 -2 10 2 14 10 9 43 7 43 -3z m-95 -51 c-3 -5 -13 -10
-21 -10 -8 0 -12 5 -9 10 3 6 13 10 21 10 8 0 12 -4 9 -10z m-2676 -72 c16
-35 46 -106 66 -158 21 -52 43 -108 50 -125 22 -53 44 -138 59 -230 22 -122
22 -482 1 -591 -24 -127 -48 -194 -126 -360 -22 -45 -39 -85 -39 -89 0 -12
-169 -251 -192 -272 -19 -17 -18 -15 3 22 13 22 48 74 78 115 79 107 101 140
101 151 0 5 13 33 29 62 16 28 39 86 51 127 12 41 29 95 36 120 20 61 42 205
50 320 12 188 -31 490 -100 686 -51 148 -57 164 -82 227 -31 76 -21 73 15 -5z
m2511 -28 c-8 -5 -19 -10 -25 -10 -5 0 -3 5 5 10 8 5 20 10 25 10 6 0 3 -5 -5
-10z m-90 -50 c-8 -5 -17 -7 -19 -4 -3 3 1 9 9 14 8 5 17 7 19 4 3 -3 -1 -9
-9 -14z m-70 -30 c0 -5 -9 -10 -21 -10 -11 0 -17 5 -14 10 3 6 13 10 21 10 8
0 14 -4 14 -10z m-90 -35 c0 -9 -9 -15 -22 -15 -22 1 -23 1 -4 15 25 19 26 19
26 0z m-100 -25 c0 -5 -1 -10 -3 -10 -1 0 -18 -4 -37 -10 l-35 -9 24 19 c25
21 51 26 51 10z m-130 -30 c-8 -5 -22 -9 -30 -9 -10 0 -8 3 5 9 27 12 43 12
25 0z m1680 -145 c-12 -36 -40 -100 -61 -143 -41 -80 -43 -65 -4 23 13 28 26
61 30 75 4 14 11 30 15 35 4 6 13 27 20 48 6 21 14 36 17 33 3 -2 -5 -34 -17
-71z m-1437 -190 c-10 -13 -22 -25 -27 -25 -5 0 1 11 14 25 30 32 36 32 13 0z
m-103 -145 c0 -5 -5 -10 -11 -10 -5 0 -7 5 -4 10 3 6 8 10 11 10 2 0 4 -4 4
-10z m-48 -72 c-7 -7 -12 -8 -12 -2 0 14 12 26 19 19 2 -3 -1 -11 -7 -17z
m-42 -58 c-6 -11 -15 -20 -21 -20 -6 0 -6 7 1 20 6 11 15 20 21 20 6 0 6 -7
-1 -20z m-58 -72 c-7 -7 -12 -8 -12 -2 0 14 12 26 19 19 2 -3 -1 -11 -7 -17z
m-37 -58 c-3 -5 -11 -10 -16 -10 -6 0 -7 5 -4 10 3 6 11 10 16 10 6 0 7 -4 4
-10z m-45 -59 c0 -5 -7 -14 -15 -21 -16 -14 -18 -10 -9 14 6 17 24 22 24 7z
m-55 -90 c-9 -16 -25 -3 -18 15 4 10 9 12 15 6 6 -6 7 -15 3 -21z m-43 -73
c-9 -9 -12 -7 -12 12 0 19 3 21 12 12 9 -9 9 -15 0 -24z m-22 -64 c0 -8 -4
-12 -10 -9 -5 3 -10 10 -10 16 0 5 5 9 10 9 6 0 10 -7 10 -16z m-40 -61 c0 -5
-7 -17 -15 -27 -15 -20 -20 -10 -9 18 6 16 24 22 24 9z m1605 -804 c73 -31
143 -49 200 -49 93 0 163 -17 210 -51 25 -18 43 -34 41 -37 -3 -2 -20 7 -38
21 -46 34 -102 50 -151 43 -29 -4 -75 2 -145 19 -141 34 -160 46 -252 150 -40
45 -38 44 20 -12 36 -34 87 -72 115 -84z m655 71 c18 -12 2 -12 -25 0 -13 6
-15 9 -5 9 8 0 22 -4 30 -9z m-89 -90 c76 -45 103 -73 41 -41 -22 11 -44 26
-47 32 -4 6 -26 19 -49 29 -22 10 -35 19 -27 19 8 1 45 -17 82 -39z m179 -136
c-6 -14 -10 -39 -10 -55 0 -26 -2 -28 -19 -18 -18 12 -18 49 0 49 5 0 14 11
19 25 5 14 12 25 15 25 2 0 0 -12 -5 -26z m115 16 c8 -13 -5 -13 -25 0 -13 8
-13 10 2 10 9 0 20 -4 23 -10z m-202 -44 c4 -10 1 -13 -8 -9 -8 3 -12 9 -9 14
7 12 11 11 17 -5z m-63 0 c0 -2 -7 -9 -15 -16 -13 -11 -14 -10 -9 4 5 14 24
23 24 12z m-5219 -887 l24 -20 -24 11 c-34 17 -80 4 -120 -33 -18 -17 -30 -24
-25 -15 13 24 85 77 105 78 9 0 27 -9 40 -21z m169 -6 c-8 -3 -27 -12 -42 -20
-16 -7 -28 -10 -28 -5 0 12 40 31 65 31 14 -1 16 -2 5 -6z m243 -23 c-40 -23
-54 -38 -61 -63 l-8 -32 -6 27 c-4 22 2 32 41 61 25 20 55 36 66 36 12 1 0
-11 -32 -29z m227 10 c-35 -9 -60 -33 -60 -59 0 -11 -4 -10 -15 5 -18 24 -19
34 -1 34 7 0 19 7 26 15 7 9 28 15 49 14 l36 -1 -35 -8z m-303 -207 c-2 -16
-4 -5 -4 22 0 28 2 40 4 28 2 -13 2 -35 0 -50z m13 -88 c5 -21 5 -34 0 -29
-10 11 -25 82 -15 72 4 -3 11 -23 15 -43z m219 -14 c4 -9 11 -29 15 -46 7 -29
6 -28 -24 13 -44 59 -83 54 -119 -16 -11 -20 -20 -30 -21 -21 0 24 39 70 73
84 35 14 64 9 76 -14z m-603 7 c5 -8 2 -9 -10 -5 -10 4 -27 2 -39 -4 -21 -10
-21 -10 -3 5 24 19 42 20 52 4z m767 -6 c-10 -10 -20 -17 -22 -16 -6 5 20 34
30 34 5 0 1 -8 -8 -18z m87 -2 c8 -5 12 -11 9 -14 -3 -3 -14 1 -25 9 -21 16
-8 20 16 5z m-673 -177 c-3 -10 -5 -2 -5 17 0 19 2 27 5 18 2 -10 2 -26 0 -35z
m460 5 c-3 -7 -5 -2 -5 12 0 14 2 19 5 13 2 -7 2 -19 0 -25z m153 -2 c7 -9 9
-16 4 -16 -12 0 -26 11 -44 34 -14 18 -14 19 6 8 11 -6 26 -18 34 -26z m-266
-52 c3 -8 2 -12 -4 -9 -6 3 -10 10 -10 16 0 14 7 11 14 -7z"/>
<path d="M6614 9415 c-10 -25 1 -50 22 -53 23 -3 37 18 28 42 -8 20 -44 28
-50 11z"/>
<path d="M5360 9180 c0 -28 38 -46 57 -28 21 22 6 48 -28 48 -22 0 -29 -5 -29
-20z"/>
<path d="M7080 5366 c0 -9 7 -16 16 -16 9 0 14 5 12 12 -6 18 -28 21 -28 4z"/>
<path d="M7507 10394 c-9 -9 3 -34 17 -34 6 0 20 -19 32 -42 12 -23 26 -44 33
-46 18 -6 26 29 10 42 -9 6 -18 19 -22 29 -3 9 -10 17 -16 17 -5 0 -11 9 -14
20 -5 19 -27 27 -40 14z"/>
<path d="M7598 10264 c-12 -11 4 -34 24 -34 13 0 18 6 16 17 -3 18 -29 29 -40
17z"/>
<path d="M7614 10199 c-10 -16 23 -46 36 -33 6 6 8 18 4 27 -7 19 -29 22 -40
6z"/>
<path d="M7627 10133 c-3 -5 -2 -15 3 -22 10 -17 43 -6 38 12 -6 15 -34 22
-41 10z"/>
<path d="M7623 10044 c-8 -21 13 -42 28 -27 13 13 5 43 -11 43 -6 0 -13 -7
-17 -16z"/>
<path d="M7603 9994 c-7 -19 11 -39 26 -30 16 10 13 33 -4 40 -9 3 -18 -1 -22
-10z"/>
<path d="M7570 9907 c0 -7 5 -18 12 -25 9 -9 6 -12 -16 -12 -21 0 -27 -4 -24
-17 6 -32 36 -26 53 11 9 19 14 40 10 45 -9 15 -35 14 -35 -2z"/>
<path d="M7494 9799 c-10 -17 23 -46 37 -32 7 7 9 19 6 27 -7 18 -33 21 -43 5z"/>
<path d="M8153 9794 c-9 -23 13 -40 32 -24 12 10 13 16 4 26 -15 18 -28 18
-36 -2z"/>
<path d="M8217 9803 c-15 -14 -7 -43 12 -43 23 0 34 23 18 39 -13 13 -21 14
-30 4z"/>
<path d="M8060 9769 c0 -25 33 -22 38 4 2 12 -3 17 -17 17 -15 0 -21 -6 -21
-21z"/>
<path d="M8284 9779 c-3 -6 0 -17 8 -25 13 -13 16 -13 27 0 7 8 10 20 6 26 -8
13 -32 13 -41 -1z"/>
<path d="M8351 9770 c-14 -8 -8 -40 7 -40 5 0 15 6 21 14 15 17 -8 39 -28 26z"/>
<path d="M7464 9755 c-4 -9 -2 -21 4 -27 15 -15 44 -1 40 19 -4 23 -36 29 -44
8z"/>
<path d="M7987 9763 c-3 -5 -2 -15 3 -22 10 -17 43 -6 38 12 -6 15 -34 22 -41
10z"/>
<path d="M8427 9753 c-13 -12 -7 -33 8 -33 8 0 15 9 15 20 0 20 -11 26 -23 13z"/>
<path d="M7915 9730 c-4 -6 -1 -18 6 -26 12 -14 14 -14 26 2 7 9 10 21 7 25
-7 12 -31 11 -39 -1z"/>
<path d="M8485 9730 c-3 -5 -1 -10 4 -10 6 0 11 5 11 10 0 6 -2 10 -4 10 -3 0
-8 -4 -11 -10z"/>
<path d="M7424 9705 c-3 -8 -3 -19 1 -25 11 -17 35 -11 35 9 0 23 -29 36 -36
16z"/>
<path d="M7835 9690 c-4 -7 -3 -16 3 -22 14 -14 45 -2 40 15 -6 16 -34 21 -43
7z"/>
<path d="M7770 9632 c0 -26 11 -34 27 -21 20 17 16 39 -7 39 -13 0 -20 -7 -20
-18z"/>
<path d="M7382 9623 c5 -26 38 -29 38 -4 0 15 -6 21 -21 21 -14 0 -19 -5 -17
-17z"/>
<path d="M7710 9580 c0 -13 7 -20 20 -20 13 0 20 7 20 20 0 13 -7 20 -20 20
-13 0 -20 -7 -20 -20z"/>
<path d="M7645 9520 c-4 -7 -3 -16 3 -22 14 -14 45 -2 40 15 -6 16 -34 21 -43
7z"/>
<path d="M7605 9460 c-8 -13 3 -30 20 -30 14 0 27 24 18 34 -10 9 -31 7 -38
-4z"/>
<path d="M7561 9396 c-9 -10 -9 -16 -1 -21 17 -10 37 12 24 25 -8 8 -15 6 -23
-4z"/>
<path d="M7511 9347 c-14 -17 3 -41 23 -34 9 4 16 13 16 21 0 19 -26 28 -39
13z"/>
<path d="M4234 9339 c-10 -17 23 -46 38 -31 8 8 8 15 -2 27 -15 18 -26 19 -36
4z"/>
<path d="M7914 9315 c-3 -8 -3 -19 1 -25 11 -17 35 -11 35 9 0 23 -29 36 -36
16z"/>
<path d="M7966 9321 c-7 -11 3 -41 14 -41 4 0 13 7 21 16 10 13 10 17 -2 25
-18 11 -26 11 -33 0z"/>
<path d="M8027 9316 c-3 -8 1 -20 9 -27 12 -10 18 -9 31 3 8 9 12 21 9 27 -10
16 -43 14 -49 -3z"/>
<path d="M8721 9316 c-9 -10 -8 -16 3 -25 10 -9 16 -8 25 3 9 10 8 16 -3 25
-10 9 -16 8 -25 -3z"/>
<path d="M7857 9303 c-3 -5 -2 -15 3 -22 10 -17 43 -6 38 12 -6 15 -34 22 -41
10z"/>
<path d="M8092 9293 c5 -26 38 -29 38 -4 0 15 -6 21 -21 21 -14 0 -19 -5 -17
-17z"/>
<path d="M4204 9285 c-7 -18 3 -35 21 -35 21 0 28 19 15 35 -16 19 -29 19 -36
0z"/>
<path d="M7786 9291 c-3 -4 1 -16 8 -27 12 -15 16 -16 30 -5 12 10 14 17 5 27
-13 16 -35 18 -43 5z"/>
<path d="M8157 9294 c-10 -10 12 -44 29 -44 20 0 30 30 13 41 -17 10 -33 11
-42 3z"/>
<path d="M7737 9273 c-12 -12 -7 -43 7 -43 18 0 39 27 31 40 -7 11 -28 13 -38
3z"/>
<path d="M8220 9266 c0 -7 7 -19 15 -26 19 -16 41 1 32 24 -8 20 -47 21 -47 2z"/>
<path d="M8662 9267 c-15 -17 0 -39 22 -31 18 7 18 35 0 41 -6 2 -16 -2 -22
-10z"/>
<path d="M4186 9243 c-14 -15 -5 -43 14 -43 13 0 20 7 20 19 0 19 -23 35 -34
24z"/>
<path d="M7682 9233 c2 -10 10 -18 18 -18 8 0 16 8 18 18 2 12 -3 17 -18 17
-15 0 -20 -5 -18 -17z"/>
<path d="M8302 9228 c2 -13 11 -24 21 -26 22 -4 35 27 16 39 -25 16 -41 10
-37 -13z"/>
<path d="M8580 9233 c1 -19 19 -35 34 -30 26 10 19 37 -9 37 -14 0 -25 -3 -25
-7z"/>
<path d="M8380 9219 c0 -8 5 -21 10 -29 7 -12 12 -12 21 -3 10 10 16 10 29 -2
15 -14 19 -14 30 0 15 18 9 26 -22 31 -13 2 -33 6 -45 10 -16 4 -23 2 -23 -7z"/>
<path d="M8521 9211 c-16 -11 -2 -43 18 -39 9 2 17 10 19 19 3 19 -19 31 -37
20z"/>
<path d="M7617 9204 c-16 -16 -6 -35 16 -32 12 2 22 10 22 18 0 16 -26 25 -38
14z"/>
<path d="M7563 9163 c-10 -3 -10 -10 -2 -24 8 -16 13 -18 25 -8 8 6 14 15 14
19 0 11 -22 18 -37 13z"/>
<path d="M4160 9141 c0 -21 26 -36 36 -20 9 15 -3 39 -21 39 -8 0 -15 -9 -15
-19z"/>
<path d="M4164 9056 c-4 -10 -2 -22 4 -28 8 -8 13 -7 18 6 4 10 2 22 -4 28 -8
8 -13 7 -18 -6z"/>
<path d="M7817 8994 c-15 -15 -7 -45 11 -42 9 2 17 12 17 22 0 20 -16 31 -28
20z"/>
<path d="M7740 8971 c0 -11 4 -22 8 -25 14 -9 35 12 29 28 -9 23 -37 20 -37
-3z"/>
<path d="M7670 8961 c0 -27 19 -36 37 -18 18 18 9 37 -18 37 -12 0 -19 -7 -19
-19z"/>
<path d="M7884 8969 c-10 -17 23 -46 37 -32 7 7 9 19 6 27 -7 18 -33 21 -43 5z"/>
<path d="M4185 8950 c-8 -14 3 -30 21 -30 8 0 14 9 14 20 0 21 -24 28 -35 10z"/>
<path d="M7963 8944 c-10 -26 14 -41 35 -21 15 16 15 19 2 27 -21 14 -30 12
-37 -6z"/>
<path d="M8034 8925 c-9 -23 4 -47 23 -43 22 4 30 38 11 49 -19 13 -28 11 -34
-6z"/>
<path d="M8113 8884 c-9 -23 25 -48 44 -33 18 15 16 36 -3 43 -25 10 -34 7
-41 -10z"/>
<path d="M4210 8876 c0 -18 16 -29 30 -21 13 8 1 35 -16 35 -8 0 -14 -6 -14
-14z"/>
<path d="M8180 8830 c0 -15 5 -20 18 -18 9 2 17 10 17 18 0 8 -8 16 -17 18
-13 2 -18 -3 -18 -18z"/>
<path d="M4250 8801 c0 -21 26 -36 36 -20 9 15 -3 39 -21 39 -8 0 -15 -9 -15
-19z"/>
<path d="M8240 8810 c-18 -11 -4 -42 17 -38 10 2 19 10 21 19 4 19 -19 31 -38
19z"/>
<path d="M8296 8771 c-7 -10 3 -41 13 -41 17 1 33 20 28 34 -7 17 -32 22 -41
7z"/>
<path d="M3833 8754 c-3 -8 1 -22 9 -30 13 -13 16 -13 28 0 10 13 10 19 0 31
-16 19 -29 19 -37 -1z"/>
<path d="M3914 8755 c-3 -8 -3 -19 1 -25 11 -17 35 -11 35 9 0 23 -29 36 -36
16z"/>
<path d="M4300 8751 c0 -15 6 -21 21 -21 25 0 22 33 -4 38 -12 2 -17 -3 -17
-17z"/>
<path d="M3754 8729 c-9 -15 11 -33 30 -26 9 4 13 13 10 22 -7 17 -30 20 -40
4z"/>
<path d="M3986 8731 c-7 -10 22 -37 30 -28 9 8 -3 37 -15 37 -5 0 -12 -4 -15
-9z"/>
<path d="M8354 8725 c-8 -21 10 -39 30 -32 22 9 20 24 -4 37 -16 9 -22 8 -26
-5z"/>
<path d="M4362 8704 c2 -11 11 -20 22 -22 13 -3 17 1 14 14 -2 11 -11 20 -22
22 -13 3 -17 -1 -14 -14z"/>
<path d="M4064 8696 c-9 -24 12 -44 28 -28 10 10 8 16 -5 29 -15 15 -17 15
-23 -1z"/>
<path d="M4414 8695 c-7 -18 3 -35 22 -35 15 0 17 9 8 34 -8 20 -23 21 -30 1z"/>
<path d="M3674 8687 c-8 -21 1 -47 16 -47 19 0 23 31 7 48 -15 14 -17 14 -23
-1z"/>
<path d="M8404 8665 c-7 -18 3 -35 21 -35 21 0 28 19 15 35 -16 19 -29 19 -36
0z"/>
<path d="M4112 8644 c1 -9 9 -19 16 -22 9 -3 13 2 10 14 -1 9 -9 19 -16 22 -9
3 -13 -2 -10 -14z"/>
<path d="M4482 8644 c2 -11 11 -20 22 -22 13 -3 17 1 14 14 -2 11 -11 20 -22
22 -13 3 -17 -1 -14 -14z"/>
<path d="M3642 8634 c2 -11 11 -20 22 -22 13 -3 17 1 14 14 -2 11 -11 20 -22
22 -13 3 -17 -1 -14 -14z"/>
<path d="M8475 8610 c-3 -6 -3 -19 0 -31 6 -19 8 -20 26 -3 14 13 16 20 8 31
-14 16 -26 17 -34 3z"/>
<path d="M4170 8591 c0 -12 6 -21 16 -21 9 0 14 7 12 17 -5 25 -28 28 -28 4z"/>
<path d="M4222 8553 c4 -21 33 -25 33 -3 0 8 -8 16 -18 18 -14 3 -18 -1 -15
-15z"/>
<path d="M4286 8521 c-3 -5 1 -14 8 -20 16 -13 32 2 21 19 -8 12 -22 13 -29 1z"/>
<path d="M4350 8486 c0 -18 17 -29 30 -21 8 5 7 11 -1 21 -15 18 -29 18 -29 0z"/>
<path d="M4400 8455 c0 -8 9 -15 20 -15 24 0 27 15 4 24 -22 9 -24 8 -24 -9z"/>
<path d="M4487 8446 c-7 -19 18 -42 28 -26 8 13 -1 40 -14 40 -5 0 -11 -6 -14
-14z"/>
<path d="M3994 8407 c-3 -10 0 -24 7 -33 11 -14 13 -14 22 1 6 12 4 22 -7 33
-14 14 -16 14 -22 -1z"/>
<path d="M4030 8321 c0 -15 6 -21 21 -21 25 0 22 33 -4 38 -12 2 -17 -3 -17
-17z"/>
<path d="M4095 8261 c-8 -15 3 -31 21 -31 9 0 14 7 12 17 -4 20 -24 28 -33 14z"/>
<path d="M4150 8211 c0 -24 18 -37 32 -23 8 8 7 16 -2 27 -17 21 -30 19 -30
-4z"/>
<path d="M4215 8181 c-10 -17 15 -45 29 -31 7 7 5 15 -6 26 -11 11 -18 13 -23
5z"/>
<path d="M4300 8126 c0 -9 7 -16 16 -16 17 0 14 22 -4 28 -7 2 -12 -3 -12 -12z"/>
<path d="M4347 8126 c-8 -20 20 -43 35 -28 14 14 3 42 -16 42 -7 0 -16 -6 -19
-14z"/>
<path d="M4436 8123 c-8 -19 17 -48 33 -39 17 11 13 34 -8 45 -15 8 -20 7 -25
-6z"/>
<path d="M4576 8133 c-11 -11 -6 -31 8 -36 8 -3 20 0 26 8 9 11 7 16 -8 24
-11 6 -22 7 -26 4z"/>
<path d="M4512 8108 c2 -12 10 -23 18 -23 22 0 19 39 -3 43 -15 3 -18 -1 -15
-20z"/>
<path d="M9482 5860 c-32 -13 -35 -29 -22 -114 12 -83 7 -116 -33 -193 -42
-83 12 -59 89 39 32 41 57 88 76 142 15 45 28 84 28 88 0 4 -10 16 -22 28 -23
21 -75 26 -116 10z"/>
<path d="M8146 1671 c-30 -33 -24 -92 13 -140 19 -23 41 -41 52 -41 56 0 135
-77 145 -140 8 -51 29 -70 51 -47 12 12 17 35 17 84 1 57 -5 80 -32 138 -18
39 -43 81 -55 93 -24 26 -74 56 -97 58 -8 1 -29 4 -46 8 -23 5 -34 2 -48 -13z"/>
</g>
</svg>
